HIERARCHY
ROOT hip
{
  OFFSET 0 0 0
  CHANNELS 6 Xposition Yposition Zposition Zrotation Yrotation Xrotation
  JOINT abdomen
  {
    OFFSET 0 20.6881 -0.73152
    CHANNELS 3 Zrotation Xrotation Yrotation
    JOINT chest
    {
      OFFSET 0 11.7043 -0.48768
      CHANNELS 3 Zrotation Xrotation Yrotation
      JOINT neck
      {
        OFFSET 0 22.1894 -2.19456
        CHANNELS 3 Zrotation Xrotation Yrotation
        JOINT head
        {
          OFFSET -0.24384 7.07133 1.2192
          CHANNELS 3 Zrotation Xrotation Yrotation
          JOINT leftEye
          {
            OFFSET 4.14528 8.04674 8.04672
            CHANNELS 3 Zrotation Xrotation Yrotation
            End Site
            {
              OFFSET 1 0 0
            }
          }
          JOINT rightEye
          {
            OFFSET -3.6576 8.04674 8.04672
            CHANNELS 3 Zrotation Xrotation Yrotation
            End Site
            {
              OFFSET 1 0 0
            }
          }
        }
      }
      JOINT rCollar
      {
        OFFSET -2.68224 19.2634 -4.8768
        CHANNELS 3 Zrotation Xrotation Yrotation
        JOINT rShldr
        {
          OFFSET -8.77824 -1.95073 1.46304
          CHANNELS 3 Zrotation Xrotation Yrotation
          JOINT rForeArm
          {
            OFFSET -28.1742 -1.7115 0.48768
            CHANNELS 3 Zrotation Xrotation Yrotation
            JOINT rHand
            {
              OFFSET -22.5879 0.773209 7.07136
              CHANNELS 3 Zrotation Xrotation Yrotation
              JOINT rThumb1
              {
                OFFSET -1.2192 -0.487915 3.41376
                CHANNELS 3 Zrotation Xrotation Yrotation
                JOINT rThumb2
                {
                  OFFSET -3.37035 -0.52449 3.41376
                  CHANNELS 3 Zrotation Xrotation Yrotation
                  End Site
                  {
                    OFFSET -1.78271 -1.18214 1.43049
                  }
                }
              }
              JOINT rIndex1
              {
                OFFSET -7.75947 0.938293 5.60832
                CHANNELS 3 Zrotation Xrotation Yrotation
                JOINT rIndex2
                {
                  OFFSET -2.54057 -0.884171 1.56538
                  CHANNELS 3 Zrotation Xrotation Yrotation
                  End Site
                  {
                    OFFSET -1.62519 -0.234802 1.16502
                  }
                }
              }
              JOINT rMid1
              {
                OFFSET -8.24714 1.18213 3.41376
                CHANNELS 3 Zrotation Xrotation Yrotation
                JOINT rMid2
                {
                  OFFSET -3.10165 -0.590103 1.0647
                  CHANNELS 3 Zrotation Xrotation Yrotation
                  End Site
                  {
                    OFFSET -2.48547 -0.328903 0.83742
                  }
                }
              }
              JOINT rRing1
              {
                OFFSET -8.82822 0.546677 1.51678
                CHANNELS 3 Zrotation Xrotation Yrotation
                JOINT rRing2
                {
                  OFFSET -2.60934 -0.819778 -0.0198488
                  CHANNELS 3 Zrotation Xrotation Yrotation
                  End Site
                  {
                    OFFSET -2.33842 -0.294052 0.168128
                  }
                }
              }
              JOINT rPinky1
              {
                OFFSET -8.27202 -0.0477905 -0.4584
                CHANNELS 3 Zrotation Xrotation Yrotation
                JOINT rPinky2
                {
                  OFFSET -1.82734 -0.647385 -0.700984
                  CHANNELS 3 Zrotation Xrotation Yrotation
                  End Site
                  {
                    OFFSET -1.69225 -0.51767 -0.607171
                  }
                }
              }
            }
          }
        }
      }
      JOINT lCollar
      {
        OFFSET 2.68224 19.2634 -4.8768
        CHANNELS 3 Zrotation Xrotation Yrotation
        JOINT lShldr
        {
          OFFSET 8.77824 -1.95073 1.46304
          CHANNELS 3 Zrotation Xrotation Yrotation
          JOINT lForeArm
          {
            OFFSET 28.1742 -1.7115 0.48768
            CHANNELS 3 Zrotation Xrotation Yrotation
            JOINT lHand
            {
              OFFSET 22.5879 0.773209 7.07136
              CHANNELS 3 Zrotation Xrotation Yrotation
              JOINT lThumb1
              {
                OFFSET 1.2192 -0.487915 3.41376
                CHANNELS 3 Zrotation Xrotation Yrotation
                JOINT lThumb2
                {
                  OFFSET 3.37035 -0.52449 3.41376
                  CHANNELS 3 Zrotation Xrotation Yrotation
                  End Site
                  {
                    OFFSET 1.78271 -1.18214 1.43049
                  }
                }
              }
              JOINT lIndex1
              {
                OFFSET 7.75947 0.938293 5.60832
                CHANNELS 3 Zrotation Xrotation Yrotation
                JOINT lIndex2
                {
                  OFFSET 2.54057 -0.884171 1.56538
                  CHANNELS 3 Zrotation Xrotation Yrotation
                  End Site
                  {
                    OFFSET 1.62519 -0.234802 1.16502
                  }
                }
              }
              JOINT lMid1
              {
                OFFSET 8.24714 1.18213 3.41376
                CHANNELS 3 Zrotation Xrotation Yrotation
                JOINT lMid2
                {
                  OFFSET 3.10165 -0.590103 1.0647
                  CHANNELS 3 Zrotation Xrotation Yrotation
                  End Site
                  {
                    OFFSET 2.48547 -0.328903 0.83742
                  }
                }
              }
              JOINT lRing1
              {
                OFFSET 8.82822 0.546677 1.51678
                CHANNELS 3 Zrotation Xrotation Yrotation
                JOINT lRing2
                {
                  OFFSET 2.60934 -0.819778 -0.0198488
                  CHANNELS 3 Zrotation Xrotation Yrotation
                  End Site
                  {
                    OFFSET 2.33842 -0.294052 0.168128
                  }
                }
              }
              JOINT lPinky1
              {
                OFFSET 8.27202 -0.0477905 -0.4584
                CHANNELS 3 Zrotation Xrotation Yrotation
                JOINT lPinky2
                {
                  OFFSET 1.82734 -0.647385 -0.700984
                  CHANNELS 3 Zrotation Xrotation Yrotation
                  End Site
                  {
                    OFFSET 1.69225 -0.51767 -0.607171
                  }
                }
              }
            }
          }
        }
      }
    }
  }
  JOINT rButtock
  {
    OFFSET -8.77824 4.35084 1.2192
    CHANNELS 3 Zrotation Xrotation Yrotation
    JOINT rThigh
    {
      OFFSET 0 -1.70687 -2.19456
      CHANNELS 3 Zrotation Xrotation Yrotation
      JOINT rShin
      {
        OFFSET 0 -36.8199 0.73152
        CHANNELS 3 Zrotation Xrotation Yrotation
        JOINT rFoot
        {
          OFFSET 0.73152 -45.1104 -5.12064
          CHANNELS 3 Zrotation Xrotation Yrotation
          End Site
          {
            OFFSET -1.1221 -3.69964 12.103
          }
        }
      }
    }
  }
  JOINT lButtock
  {
    OFFSET 8.77824 4.35084 1.2192
    CHANNELS 3 Zrotation Xrotation Yrotation
    JOINT lThigh
    {
      OFFSET 0 -1.70687 -2.19456
      CHANNELS 3 Zrotation Xrotation Yrotation
      JOINT lShin
      {
        OFFSET 0 -36.8199 0.73152
        CHANNELS 3 Zrotation Xrotation Yrotation
        JOINT lFoot
        {
          OFFSET -0.73152 -45.1104 -5.12064
          CHANNELS 3 Zrotation Xrotation Yrotation
          End Site
          {
            OFFSET 1.1221 -3.69964 12.103
          }
        }
      }
    }
  }
}
MOTION
Frames:	6
Frame Time:	0.00833333
32.4154 83.282 -28.6513 0.0 0.0 0.0 -2.9629 0.00183614 -0.0799161 -0.816459 0.016909 -0.141253 -4.28782e-14 -7.95139e-16 -1.04362e-15 -1.28145e-13 3.18055e-15 -2.88548e-15 -0.0 0.0 0.0 -0.0 0.0 0.0 -2.12728e-14 -1.44429e-16 -2.98177e-16 -4.46583e-13 -2.85753e-15 -1.09332e-14 -7.70892e-12 2.22003e-12 -1.33583e-13 -8.83136e-11 -2.83124e-12 -2.21367e-12 -2.08299e-10 -1.32446e-12 -5.0539e-12 -3.59734e-10 -2.28682e-12 -8.7187e-12 -2.08298e-10 -1.32391e-12 -5.07298e-12 7.73091 5.47488 0.417314 -2.08299e-10 -1.3246e-12 -5.05072e-12 2.90554 0.965183 0.102902 -2.08298e-10 -1.3245e-12 -5.05231e-12 10.2786 0.731801 0.0259123 -2.08309e-10 -1.32152e-12 -5.04436e-12 2.22167 -0.733487 -0.20892 -2.13679e-14 -1.41323e-16 -6.95746e-16 -4.502e-13 -2.67738e-15 -1.25234e-14 -7.7208e-12 -2.4045e-12 -1.39944e-13 -8.83e-11 1.81898e-12 -2.1914e-12 -2.08291e-10 -1.27141e-12 -5.04118e-12 -3.59704e-10 -2.19776e-12 -8.71233e-12 -2.08297e-10 -1.26904e-12 -5.04118e-12 -7.73091 5.47488 -0.417314 -2.08291e-10 -1.27133e-12 -5.04436e-12 -2.90554 0.965183 -0.102902 -2.083e-10 -1.27123e-12 -5.04993e-12 -10.2786 0.731801 -0.0259123 -2.08286e-10 -1.26825e-12 -5.05708e-12 -2.22167 -0.733487 0.20892 -2.03217e-16 0.0 -3.88251e-19 -1.77225 -1.93398 0.0122156 -0.00866848 -2.07864 -0.0712452 -0.477638 3.99977 0.135258 2.03217e-16 0.0 3.88251e-19 -2.7281 -9.04333 0.303203 -0.00826993 10.7977 -0.214932 0.537916 -1.76715 -0.0241506
25.4313 82.9223 -34.9613 179.866 -87.389 176.664 -2.61571 1.08321 -0.0840377 -1.21823 0.754876 -0.185116 0.868651 4.01061 -0.132665 -0.139671 -10.2415 -0.357902 -0.0 0.0 0.0 -0.0 0.0 0.0 -1.83927e-14 4.65744e-13 3.46677e-14 14.9895 4.13089 1.41827 -7.54912 -4.51763 10.373 0.00826415 -2.0183 -0.283019 -4.01491e-10 -7.07566e-10 2.63167e-10 -6.95705e-10 -1.22546e-09 4.54963e-10 -4.01488e-10 -7.07562e-10 2.6315e-10 7.73091 5.47488 0.417314 -4.01492e-10 -7.07564e-10 2.6317e-10 2.90554 0.965183 0.102902 -4.01489e-10 -7.07564e-10 2.63169e-10 10.2786 0.731801 0.0259123 -4.015e-10 -7.07561e-10 2.63176e-10 2.22167 -0.733487 -0.20892 -1.84722e-14 4.65745e-13 3.43428e-14 -15.5694 2.25955 -2.71032 7.65971 -4.61681 -10.4748 -0.122289 -7.77453 1.05672 -9.89295e-12 -2.78789e-10 -1.59966e-10 -1.29631e-11 -4.77378e-10 -2.73223e-10 -9.8981e-12 -2.78787e-10 -1.59964e-10 -7.73091 5.47488 -0.417314 -9.89278e-12 -2.78789e-10 -1.59967e-10 -2.90554 0.965183 -0.102902 -9.90235e-12 -2.78788e-10 -1.59972e-10 -10.2786 0.731801 -0.0259123 -9.88975e-12 -2.78785e-10 -1.59977e-10 -2.22167 -0.733487 0.20892 -2.03217e-16 0.0 -3.88251e-19 -3.99939 -3.35068 1.70554 0.0312729 5.52586 0.134818 -1.18865 -3.07237 -4.61026 2.03217e-16 0.0 3.88251e-19 -1.20236 -7.69976 2.3863 -0.016377 13.66 -0.251571 0.903598 -4.9299 5.39572
25.4374 82.9177 -34.9428 177.816 -87.3684 178.756 -2.25178 2.22528 -0.0837929 -1.64123 1.53466 -0.23027 1.80803 8.25058 -0.275154 -0.441583 -21.0565 -0.778164 -0.0 0.0 0.0 -0.0 0.0 0.0 -1.5953e-14 1.00975e-12 7.47306e-14 30.5824 8.45737 2.93334 -13.7749 -8.79883 21.5383 -0.00471982 -4.14254 -0.582087 -6.36109e-10 -1.52279e-09 5.69874e-10 -1.1036e-09 -2.6373e-09 9.85104e-10 -6.36104e-10 -1.52278e-09 5.69859e-10 7.73091 5.47488 0.417314 -6.36111e-10 -1.52279e-09 5.69875e-10 2.90554 0.965183 0.102902 -6.36105e-10 -1.52279e-09 5.69875e-10 10.2786 0.731801 0.0259123 -6.36116e-10 -1.52278e-09 5.69882e-10 2.22167 -0.733487 -0.20892 -1.60151e-14 1.00975e-12 7.44852e-14 -31.7622 4.60304 -5.59167 13.9429 -8.9783 -21.7541 0.0719741 -16.0141 2.2447 2.18069e-10 -6.03928e-10 -3.41913e-10 3.85532e-10 -1.03411e-09 -5.83851e-10 2.18065e-10 -6.03926e-10 -3.4191e-10 -7.73091 5.47488 -0.417314 2.18069e-10 -6.03927e-10 -3.41913e-10 -2.90554 0.965183 -0.102902 2.18059e-10 -6.03927e-10 -3.41916e-10 -10.2786 0.731801 -0.0259123 2.1807e-10 -6.03924e-10 -3.4192e-10 -2.22167 -0.733487 0.20892 -2.03217e-16 0.0 -3.88251e-19 -6.2748 -4.84564 3.47935 0.0127479 13.5658 0.361534 -3.22848 -10.4202 -9.7849 2.03217e-16 0.0 3.88251e-19 0.301068 -6.27192 4.58689 -0.0205627 16.6773 -0.291868 1.93787 -8.14052 11.2
25.4126 82.9169 -34.9599 179.046 -87.3168 177.52 -1.92087 3.24595 -0.0923839 -2.01837 2.2308 -0.273002 2.66274 12.0316 -0.405937 -0.856034 -30.7192 -1.22908 -0.0 0.0 0.0 -0.0 0.0 0.0 -1.26326e-14 1.39752e-12 1.046e-13 44.3431 12.3619 4.34467 -17.9234 -11.776 31.765 -0.0353086 -6.0543 -0.853291 -7.87875e-10 -2.12005e-09 7.9961e-10 -1.36765e-09 -3.67182e-09 1.38233e-09 -7.87868e-10 -2.12004e-09 7.99597e-10 7.73091 5.47488 0.417314 -7.87878e-10 -2.12004e-09 7.99611e-10 2.90554 0.965183 0.102902 -7.8787e-10 -2.12004e-09 7.99611e-10 10.2786 0.731801 0.0259123 -7.87881e-10 -2.12004e-09 7.99618e-10 2.22167 -0.733487 -0.20892 -1.26807e-14 1.39752e-12 1.0442e-13 -46.0656 6.71781 -8.18117 18.1063 -11.9983 -32.1034 0.557836 -23.2904 3.42 3.86903e-10 -8.33825e-10 -4.69815e-10 6.8052e-10 -1.42774e-09 -8.02244e-10 3.86899e-10 -8.33822e-10 -4.6981e-10 -7.73091 5.47488 -0.417314 3.86903e-10 -8.33823e-10 -4.69813e-10 -2.90554 0.965183 -0.102902 3.86892e-10 -8.33822e-10 -4.69816e-10 -10.2786 0.731801 -0.0259123 3.86903e-10 -8.33819e-10 -4.69818e-10 -2.22167 -0.733487 0.20892 -2.03217e-16 0.0 -3.88251e-19 -8.20153 -6.16409 5.11309 -0.0613687 20.7339 0.582712 -6.20584 -16.7129 -14.7155 2.03217e-16 0.0 3.88251e-19 1.55545 -4.99978 6.52035 -0.0208267 19.3844 -0.329808 3.43045 -10.8672 16.4791
25.3948 82.9157 -34.9314 179.097 -87.3527 177.465 -1.67203 3.96311 -0.123033 -2.2831 2.71785 -0.309548 3.26526 14.6654 -0.499886 -1.22574 -37.5061 -1.61109 -0.0 0.0 0.0 -0.0 0.0 0.0 -7.11047e-15 1.39471e-12 1.08984e-13 53.9539 15.2394 5.41582 -20.1428 -13.1924 39.0277 -0.0682895 -7.43541 -1.05094 -7.3251e-10 -2.17239e-09 8.36922e-10 -1.27209e-09 -3.76303e-09 1.44725e-09 -7.32501e-10 -2.17238e-09 8.36909e-10 7.73091 5.47488 0.417314 -7.32513e-10 -2.17238e-09 8.36922e-10 2.90554 0.965183 0.102902 -7.32504e-10 -2.17238e-09 8.36922e-10 10.2786 0.731801 0.0259123 -7.32515e-10 -2.17238e-09 8.36928e-10 2.22167 -0.733487 -0.20892 -7.15278e-15 1.39471e-12 1.08835e-13 -56.087 8.3172 -9.99604 20.3275 -13.4293 -39.4811 1.08523 -28.1907 4.32006 4.07919e-10 -8.25613e-10 -4.62605e-10 7.16742e-10 -1.41363e-09 -7.90052e-10 4.07915e-10 -8.2561e-10 -4.62599e-10 -7.73091 5.47488 -0.417314 4.07919e-10 -8.25611e-10 -4.62602e-10 -2.90554 0.965183 -0.102902 4.07908e-10 -8.2561e-10 -4.62605e-10 -10.2786 0.731801 -0.0259123 4.07918e-10 -8.25607e-10 -4.62605e-10 -2.22167 -0.733487 0.20892 -2.03217e-16 0.0 -3.88251e-19 -9.43029 -7.058 6.37922 -0.149683 25.7233 0.75388 -8.94495 -20.8726 -18.3857 2.03217e-16 0.0 3.88251e-19 2.39664 -4.12081 7.80543 -0.0196701 21.3163 -0.358097 4.82366 -12.7374 20.2329
25.3771 82.9156 -34.9208 180.35 -87.3723 176.195 -1.53136 4.26105 -0.183173 -2.39427 2.90965 -0.336931 3.49777 15.6991 -0.535119 -1.33478 -40.2816 -1.76237 -0.0 0.0 0.0 -0.0 0.0 0.0 2.48205e-15 7.14155e-13 6.81544e-14 57.943 16.7023 5.96031 -20.8897 -13.5777 41.8971 -0.0873542 -8.14066 -1.15245 -3.41363e-10 -1.34122e-09 5.60301e-10 -5.93556e-10 -2.32488e-09 9.70079e-10 -3.41351e-10 -1.34121e-09 5.60288e-10 7.73091 5.47488 0.417314 -3.41366e-10 -1.34121e-09 5.60301e-10 2.90554 0.965183 0.102902 -3.41356e-10 -1.34121e-09 5.603e-10 10.2786 0.731801 0.0259123 -3.41366e-10 -1.34121e-09 5.60305e-10 2.22167 -0.733487 -0.20892 2.43222e-15 7.14152e-13 6.79766e-14 -60.3219 9.21025 -10.6866 21.0945 -13.842 -42.4607 1.30692 -29.7748 4.63964 1.89814e-10 -4.45511e-10 -2.42255e-10 3.34512e-10 -7.63227e-10 -4.14386e-10 1.8981e-10 -4.45507e-10 -2.42247e-10 -7.73091 5.47488 -0.417314 1.89815e-10 -4.45507e-10 -2.4225e-10 -2.90554 0.965183 -0.102902 1.89804e-10 -4.45507e-10 -2.42253e-10 -10.2786 0.731801 -0.0259123 1.89815e-10 -4.45504e-10 -2.42255e-10 -2.22167 -0.733487 0.20892 -2.03217e-16 0.0 -3.88251e-19 -9.75061 -7.36306 7.14267 -0.193345 27.6614 0.824878 -10.1225 -22.4685 -19.7791 2.03217e-16 0.0 3.88251e-19 2.74946 -3.78469 8.17523 -0.0207079 22.171 -0.371052 5.5494 -13.6838 21.7275
